<svg width="431" height="426" xmlns="http://www.w3.org/2000/svg" xmlns:xlink="http://www.w3.org/1999/xlink" xml:space="preserve" overflow="hidden"><defs><clipPath id="clip0"><rect x="375" y="2021" width="431" height="426"/></clipPath><clipPath id="clip1"><rect x="375" y="2021" width="431" height="426"/></clipPath></defs><g clip-path="url(#clip0)" transform="translate(-375 -2021)"><g clip-path="url(#clip1)"><path d="M376 2222.83C376 2211.88 384.88 2203 395.834 2203L475.166 2203C486.12 2203 495 2211.88 495 2222.83L495 2427.17C495 2438.12 486.12 2447 475.166 2447L395.834 2447C384.88 2447 376 2438.12 376 2427.17Z" fill="#F4734D" fill-rule="evenodd" fill-opacity="1"/><path d="M528 2041.83C528 2030.88 536.88 2022 547.834 2022L627.166 2022C638.12 2022 647 2030.88 647 2041.83L647 2427.17C647 2438.12 638.12 2447 627.166 2447L547.834 2447C536.88 2447 528 2438.12 528 2427.17Z" fill="#F2655E" fill-rule="evenodd" fill-opacity="1"/><path d="M687 2149.83C687 2138.88 695.88 2130 706.834 2130L786.166 2130C797.12 2130 806 2138.88 806 2149.83L806 2427.17C806 2438.12 797.12 2447 786.166 2447L706.834 2447C695.88 2447 687 2438.12 687 2427.17Z" fill="#EE253B" fill-rule="evenodd" fill-opacity="1"/></g></g></svg>