<svg width="427" height="136" viewBox="0 0 427 136" fill="none" xmlns="http://www.w3.org/2000/svg">
<rect width="427" height="136" rx="20" fill="url(#paint0_linear_1_14)"/>
<path d="M142.68 37.7578L152.094 101H135.258L134.438 89.6328H128.539L127.562 101H110.531L118.891 37.7578H142.68ZM133.969 78.4219C133.135 71.2604 132.302 62.4193 131.469 51.8984C129.802 63.9818 128.76 72.8229 128.344 78.4219H133.969ZM189.75 56.8984H174.477V52.2109C174.477 50.0234 174.281 48.6302 173.891 48.0312C173.5 47.4323 172.849 47.1328 171.938 47.1328C170.948 47.1328 170.193 47.5365 169.672 48.3438C169.177 49.151 168.93 50.375 168.93 52.0156C168.93 54.125 169.216 55.7135 169.789 56.7812C170.336 57.849 171.885 59.138 174.438 60.6484C181.755 64.9974 186.365 68.5651 188.266 71.3516C190.167 74.138 191.117 78.6302 191.117 84.8281C191.117 89.3333 190.583 92.6536 189.516 94.7891C188.474 96.9245 186.443 98.7214 183.422 100.18C180.401 101.612 176.885 102.328 172.875 102.328C168.474 102.328 164.711 101.495 161.586 99.8281C158.487 98.1615 156.456 96.0391 155.492 93.4609C154.529 90.8828 154.047 87.224 154.047 82.4844V78.3438H169.32V86.0391C169.32 88.4089 169.529 89.9323 169.945 90.6094C170.388 91.2865 171.156 91.625 172.25 91.625C173.344 91.625 174.151 91.1953 174.672 90.3359C175.219 89.4766 175.492 88.2005 175.492 86.5078C175.492 82.7839 174.984 80.349 173.969 79.2031C172.927 78.0573 170.362 76.1432 166.273 73.4609C162.185 70.7526 159.477 68.7865 158.148 67.5625C156.82 66.3385 155.714 64.6458 154.828 62.4844C153.969 60.3229 153.539 57.5625 153.539 54.2031C153.539 49.3594 154.151 45.8177 155.375 43.5781C156.625 41.3385 158.63 39.5938 161.391 38.3438C164.151 37.0677 167.484 36.4297 171.391 36.4297C175.661 36.4297 179.294 37.1198 182.289 38.5C185.31 39.8802 187.302 41.625 188.266 43.7344C189.255 45.8177 189.75 49.3724 189.75 54.3984V56.8984ZM229.438 37.7578V50.4141H219.672V101H203.227V50.4141H193.5V37.7578H229.438ZM233.188 37.7578H244.828C252.589 37.7578 257.836 38.0573 260.57 38.6562C263.331 39.2552 265.57 40.7917 267.289 43.2656C269.034 45.7135 269.906 49.6328 269.906 55.0234C269.906 59.9453 269.294 63.2526 268.07 64.9453C266.846 66.638 264.438 67.6536 260.844 67.9922C264.099 68.7995 266.286 69.8802 267.406 71.2344C268.526 72.5885 269.216 73.8385 269.477 74.9844C269.763 76.1042 269.906 79.2161 269.906 84.3203V101H254.633V79.9844C254.633 76.599 254.359 74.5026 253.812 73.6953C253.292 72.888 251.898 72.4844 249.633 72.4844V101H233.188V37.7578ZM249.633 48.5781V62.6406C251.482 62.6406 252.771 62.3932 253.5 61.8984C254.255 61.3776 254.633 59.724 254.633 56.9375V53.4609C254.633 51.4557 254.268 50.1406 253.539 49.5156C252.836 48.8906 251.534 48.5781 249.633 48.5781ZM304.711 37.7578L314.125 101H297.289L296.469 89.6328H290.57L289.594 101H272.562L280.922 37.7578H304.711ZM296 78.4219C295.167 71.2604 294.333 62.4193 293.5 51.8984C291.833 63.9818 290.792 72.8229 290.375 78.4219H296Z" fill="url(#paint1_radial_1_14)"/>
<defs>
<linearGradient id="paint0_linear_1_14" x1="5.10766" y1="4.98429" x2="427.318" y2="120.033" gradientUnits="userSpaceOnUse">
<stop offset="0.341346" stop-color="#0E0D0D"/>
<stop offset="0.490385" stop-color="#180568"/>
<stop offset="0.634615" stop-color="#0D062F"/>
</linearGradient>
<radialGradient id="paint1_radial_1_14" cx="0" cy="0" r="1" gradientUnits="userSpaceOnUse" gradientTransform="translate(89.5824 57.8) rotate(18.7439) scale(184.852 78.0318)">
<stop offset="0.0874757" stop-color="#61BAF3"/>
<stop offset="0.956731" stop-color="#8461D8"/>
</radialGradient>
</defs>
</svg>
