<svg width="200" height="120" viewBox="0 0 200 120" xmlns="http://www.w3.org/2000/svg">
  <!-- Decision Tree Structure (Left side) -->
  <!-- Top node (orange) - perfect circle -->
  <circle cx="60" cy="25" r="8" fill="#E6A441" stroke="#D66131" stroke-width="1"/>
  
  <!-- Connection lines from top node - perfectly straight -->
  <line x1="60" y1="33" x2="45" y2="45" stroke="#60615C" stroke-width="2"/>
  <line x1="60" y1="33" x2="75" y2="45" stroke="#60615C" stroke-width="2"/>
  
  <!-- Left branch node (orange) - perfect circle -->
  <circle cx="45" cy="45" r="6" fill="#E6A441" stroke="#D66131" stroke-width="1"/>
  
  <!-- Right branch node (red) - perfect circle -->
  <circle cx="75" cy="45" r="6" fill="#D66131" stroke="#D86636" stroke-width="1"/>
  
  <!-- Connection lines from red node - perfectly straight -->
  <line x1="75" y1="51" x2="65" y2="65" stroke="#60615C" stroke-width="2"/>
  <line x1="75" y1="51" x2="85" y2="65" stroke="#60615C" stroke-width="2"/>
  
  <!-- Bottom left node (orange) - perfect circle -->
  <circle cx="65" cy="65" r="5" fill="#E6A441" stroke="#D66131" stroke-width="1"/>
  
  <!-- Bottom right node (orange) - perfect circle -->
  <circle cx="85" cy="65" r="5" fill="#E6A441" stroke="#D66131" stroke-width="1"/>
  
  <!-- Arrow pointing right - perfectly straight lines -->
  <line x1="95" y1="35" x2="110" y2="35" stroke="#E6A441" stroke-width="3"/>
  <line x1="105" y1="30" x2="110" y2="35" stroke="#E6A441" stroke-width="3"/>
  <line x1="105" y1="40" x2="110" y2="35" stroke="#E6A441" stroke-width="3"/>
  
  <!-- Bar Chart (Right side) -->
  <!-- Chart base line - perfectly straight -->
  <line x1="130" y1="85" x2="180" y2="85" stroke="#5A5C5A" stroke-width="2"/>
  
  <!-- Bar 1 (orange) - perfect rectangle -->
  <rect x="135" y="65" width="8" height="20" fill="#E6A441" stroke="#D66131" stroke-width="1"/>
  
  <!-- Bar 2 (orange) - perfect rectangle -->
  <rect x="148" y="55" width="8" height="30" fill="#E6A441" stroke="#D66131" stroke-width="1"/>
  
  <!-- Bar 3 (orange) - perfect rectangle -->
  <rect x="161" y="45" width="8" height="40" fill="#E6A441" stroke="#D66131" stroke-width="1"/>
  
  <!-- Bar 4 (red) - tallest - perfect rectangle -->
  <rect x="174" y="25" width="8" height="60" fill="#D66131" stroke="#D86636" stroke-width="1"/>
  
  <!-- Grid lines for the chart - perfectly straight -->
  <line x1="125" y1="75" x2="185" y2="75" stroke="#5A5C5A" stroke-width="0.5" opacity="0.3"/>
  <line x1="125" y1="65" x2="185" y2="65" stroke="#5A5C5A" stroke-width="0.5" opacity="0.3"/>
  <line x1="125" y1="55" x2="185" y2="55" stroke="#5A5C5A" stroke-width="0.5" opacity="0.3"/>
  <line x1="125" y1="45" x2="185" y2="45" stroke="#5A5C5A" stroke-width="0.5" opacity="0.3"/>
  <line x1="125" y1="35" x2="185" y2="35" stroke="#5A5C5A" stroke-width="0.5" opacity="0.3"/>
  
  <!-- Vertical grid lines for chart -->
  <line x1="130" y1="25" x2="130" y2="85" stroke="#5A5C5A" stroke-width="0.5" opacity="0.3"/>
  <line x1="140" y1="25" x2="140" y2="85" stroke="#5A5C5A" stroke-width="0.5" opacity="0.3"/>
  <line x1="150" y1="25" x2="150" y2="85" stroke="#5A5C5A" stroke-width="0.5" opacity="0.3"/>
  <line x1="160" y1="25" x2="160" y2="85" stroke="#5A5C5A" stroke-width="0.5" opacity="0.3"/>
  <line x1="170" y1="25" x2="170" y2="85" stroke="#5A5C5A" stroke-width="0.5" opacity="0.3"/>
  <line x1="180" y1="25" x2="180" y2="85" stroke="#5A5C5A" stroke-width="0.5" opacity="0.3"/>
</svg>