<svg clip-rule="evenodd" fill-rule="evenodd" height="512" image-rendering="optimizeQuality" shape-rendering="geometricPrecision" text-rendering="geometricPrecision" viewBox="0 0 4335 4335" width="512" xmlns="http://www.w3.org/2000/svg"><g id="Layer_x0020_1"><path d="m1307 3540h-113c-53 0-99-46-99-99v-300c-81-21-155-53-222-92l-212 212c-38 39-102 39-141 0l-243-243c-38-39-42-104-4-142l212-211c-39-67-71-145-95-222h-293c-56 0-99-43-99-99v-346c0-56 43-99 99-99h296c25-81 57-155 96-222l-212-211c-38-38-42-104-4-142l244-243c39-39 102-39 141 0l211 212c71-43 149-71 223-92v-300c0-53 46-99 98-99h117c0-148 3-254 116-370 234-239 652-119 713 219 321-146 665 172 564 504 90 5 175 41 244 99h490v-564c-131-29-233-145-233-286 0-159 130-289 293-289 162 0 292 130 292 289 0 141-98 257-232 286v631c3 32-25 60-57 60h-450c82 155 52 355-72 480 97 52 162 139 181 239h431c31-175 186-310 372-310 208 0 378 169 378 374 0 208-170 377-378 377-186 0-341-136-372-314h-431c-19 104-84 191-181 244 124 124 154 324 72 479h450c35 0 64 29 64 64v628c130 28 232 144 232 286-3 162-134 292-296 292s-293-130-293-292c0-142 99-258 233-286v-565h-494c-69 57-153 91-243 96 101 342-241 645-564 504-60 338-476 465-713 222-106-109-116-218-116-359zm853-604c-44 0-75-48-56-88l296-621h-434c-44 0-77-46-56-88l339-705c33-73 143-16 109 53l-296 617h433c45 0 77 46 57 88l-339 709c-7 21-28 35-53 35zm1546-791c-1 373 507 344 507 19 0-138-116-250-254-250-134 0-243 102-253 231zm-209-1910c-92 0-169 74-169 165 0 92 77 170 169 170s170-78 170-170c0-88-78-165-170-165zm0 3523c-92 0-169 78-169 170 0 91 77 169 169 169s170-78 170-169c0-92-78-170-170-170zm-2067-274c0 121-10 233 81 327 189 195 521 43 501-229-4-55 51-95 99-60 92 74 215 85 317 35 157-78 203-290 120-405-33-47-9-127 60-110 113 25 230-17 300-113 95-130 64-314-67-409-32-22-56-33-56-74 0-25 21-46 46-53 269-74 270-381 0-455-46-12-68-82-22-109 295-171 133-602-201-547-68 11-93-56-49-116 35-71 42-148 18-222-64-191-307-265-462-134-46 38-106-9-99-60 22-156-118-321-293-321-166 0-296 136-293 299zm-123-2569h-88v325c0 28-22 53-50 60-428 101-194 266-578-124l-212 212c395 395 225 153 120 582-7 28-32 46-60 46h-321v296h321c90 0 50 136 176 321 18 25 15 56-7 78l-229 232 208 212c398-391 151-220 582-120 28 7 46 32 46 60v325h92v-677c-293-30-519-278-519-576 0-297 229-548 519-578zm0 1700v-902c-222 29-395 221-395 451s173 421 395 451z" fill="#4d4d4d"/><path d="m2552 2192-339 709c-7 21-28 35-53 35-44 0-75-48-56-88l296-621h-434c-44 0-77-46-56-88l339-705c33-73 143-16 109 53l-296 617h433c45 0 77 46 57 88zm-1122-1464v2756c0 121-10 233 81 327 189 195 521 43 501-229-4-55 51-95 99-60 92 74 215 85 317 35 157-78 203-290 120-405-33-47-9-127 60-110 113 25 230-17 300-113 95-130 64-314-67-409-32-22-56-33-56-74 0-25 21-46 46-53 269-74 270-381 0-455-46-12-68-82-22-109 295-171 133-602-201-547-68 11-93-56-49-116 35-71 42-148 18-222-64-191-307-265-462-134-46 38-106-9-99-60 22-156-118-321-293-321-166 0-296 136-293 299z" fill="#f3a766"/><g fill="#ffe600"><path d="m3706 2145c-1 373 507 344 507 19 0-138-116-250-254-250-134 0-243 102-253 231z"/><path d="m3667 3928c0-92-78-170-170-170s-169 78-169 170c0 91 77 169 169 169s170-78 170-169z"/><path d="m3497 570c92 0 170-78 170-170 0-88-78-165-170-165s-169 74-169 165c0 92 77 170 169 170z"/></g><path d="m1307 2615v-902c-222 29-395 221-395 451s173 421 395 451z" fill="#f1f1f1"/><path d="m788 2167c0-297 229-548 519-578v-674h-88v325c0 28-22 53-50 60-428 101-194 266-578-124l-212 212c395 395 225 153 120 582-7 28-32 46-60 46h-321v296h321c90 0 50 136 176 321 18 25 15 56-7 78l-229 232 208 212c398-391 151-220 582-120 28 7 46 32 46 60v325h92v-677c-293-30-519-278-519-576z" fill="#99a4ac"/></g></svg>