<svg
  width="100"
  height="70"
  viewBox="0 0 100 70"
  fill="none"
  xmlns="http://www.w3.org/2000/svg"
>
  <defs>
    <clipPath id="ellipseClip">
      <ellipse cx="50" cy="35" rx="50" ry="35" />
    </clipPath>
  </defs>
  <path
    d="M 50 0 A 50 35 0 0 0 50 70 Z"
    fill="#284F74"
    clip-path="url(#ellipseClip)"
  />
  <path
    d="M 50 0 A 50 35 0 0 1 50 70 Z"
    fill="#EF9B41"
    clip-path="url(#ellipseClip)"
  />
  <g stroke="#EF9B41" stroke-width="1.6" fill="none"
     stroke-linecap="round" stroke-linejoin="round"
     clip-path="url(#ellipseClip)">
    <path d="M 10 18 L 20 18 L 20 25 L 30 25" />
    <path d="M 30 25 L 40 25 L 40 18 L 45 18" />
    <path d="M 20 25 L 20 32 L 10 32" />
    <path d="M 20 32 L 30 32 L 30 39" />
    <path d="M 30 39 L 20 39 L 20 46" />
    <path d="M 20 46 L 30 46 L 30 53" />
    <path d="M 10 39 L 20 39" />
    <path d="M 10 46 L 20 46" />
    <path d="M 30 32 L 40 32 L 40 39" />
    <path d="M 40 39 L 45 39" />
    <circle cx="20" cy="18" r="0.9" fill="#EF9B41" />
    <circle cx="20" cy="25" r="0.9" fill="#EF9B41" />
    <circle cx="30" cy="25" r="0.9" fill="#EF9B41" />
    <circle cx="20" cy="32" r="0.9" fill="#EF9B41" />
    <circle cx="30" cy="32" r="0.9" fill="#EF9B41" />
    <circle cx="30" cy="39" r="0.9" fill="#EF9B41" />
    <circle cx="20" cy="39" r="0.9" fill="#EF9B41" />
    <circle cx="20" cy="46" r="0.9" fill="#EF9B41" />
    <circle cx="30" cy="46" r="0.9" fill="#EF9B41" />
    <circle cx="40" cy="32" r="0.9" fill="#EF9B41" />
    <circle cx="40" cy="39" r="0.9" fill="#EF9B41" />
  </g>
  <g clip-path="url(#ellipseClip)">
    <path 
      d="M 35 12 C 38.5 12 41 14.5 41 18 C 41 20.5 35 26 35 26 C 35 26 29 20.5 29 18 C 29 14.5 31.5 12 35 12 Z" 
      fill="#dc2626" 
    />
    <circle cx="35" cy="18" r="2.5" fill="#ff6666" />
    <circle cx="35" cy="18" r="1" fill="#ffffff" />
  </g>
  <g clip-path="url(#ellipseClip)">
    <circle cx="75" cy="35" r="14" stroke="#284F74" stroke-width="2.5" fill="none" />
    <g fill="#284F74">
      <circle cx="75" cy="23" r="1.2" />
      <circle cx="81" cy="26" r="0.8" />
      <circle cx="87" cy="35" r="1.2" />
      <circle cx="81" cy="44" r="0.8" />
      <circle cx="75" cy="47" r="1.2" />
      <circle cx="69" cy="44" r="0.8" />
      <circle cx="63" cy="35" r="1.2" />
      <circle cx="69" cy="26" r="0.8" />
    </g>
    <circle cx="75" cy="35" r="2" fill="#284F74" />
    <line x1="75" y1="35" x2="69" y2="29" stroke="#284F74" stroke-width="3" stroke-linecap="round"/>
    <line x1="75" y1="35" x2="81" y2="26" stroke="#284F74" stroke-width="2" stroke-linecap="round"/>
  </g>
</svg>